<svg width="309" height="217" viewBox="0 0 309 217" fill="none" xmlns="http://www.w3.org/2000/svg">
<g filter="url(#filter0_di_460_46)">
<rect x="54" y="53" width="191" height="99" rx="28" fill="#B3AFC3"/>
</g>
<path d="M144.385 106H139.71V75.585L129.535 76.85V72.835L144.385 70.965V106ZM163.649 91.865L172.724 106H167.719L160.844 95L154.024 106H149.294L158.369 91.92L149.679 78.83H155.014L161.119 88.895L167.554 78.83H172.339L163.649 91.865Z" fill="white"/>
<path d="M100.729 127.204L97.231 126.368C96.3217 126.148 95.669 125.782 95.273 125.268C94.877 124.755 94.679 124.036 94.679 123.112C94.679 121.748 95.0677 120.751 95.845 120.12C96.6223 119.49 97.8543 119.174 99.541 119.174C100.245 119.174 100.876 119.211 101.433 119.284C102.005 119.343 102.518 119.438 102.973 119.57V120.868C102.489 120.736 101.954 120.641 101.367 120.582C100.78 120.509 100.164 120.472 99.519 120.472C98.2577 120.472 97.3703 120.663 96.857 121.044C96.3437 121.411 96.087 122.064 96.087 123.002C96.087 123.618 96.2117 124.08 96.461 124.388C96.7103 124.696 97.121 124.916 97.693 125.048L101.191 125.906C102.32 126.17 103.076 126.552 103.457 127.05C103.838 127.534 104.029 128.282 104.029 129.294C104.029 130.776 103.648 131.824 102.885 132.44C102.122 133.042 100.905 133.342 99.233 133.342C98.3383 133.342 97.473 133.284 96.637 133.166C95.801 133.049 95.141 132.895 94.657 132.704V131.362C95.3903 131.582 96.1383 131.751 96.901 131.868C97.6637 131.971 98.441 132.022 99.233 132.022C100.465 132.022 101.33 131.839 101.829 131.472C102.328 131.091 102.577 130.372 102.577 129.316C102.577 128.656 102.452 128.18 102.203 127.886C101.954 127.593 101.462 127.366 100.729 127.204ZM108.644 118.558V133.188H107.28V118.558H108.644ZM122.044 127.732C122.044 129.786 121.677 131.238 120.944 132.088C120.21 132.924 118.942 133.342 117.138 133.342C115.246 133.342 113.948 132.946 113.244 132.154C112.54 131.348 112.188 129.874 112.188 127.732C112.188 125.664 112.554 124.212 113.288 123.376C114.036 122.526 115.319 122.1 117.138 122.1C119.015 122.1 120.298 122.504 120.988 123.31C121.692 124.102 122.044 125.576 122.044 127.732ZM113.552 127.71C113.552 129.47 113.786 130.644 114.256 131.23C114.74 131.802 115.7 132.088 117.138 132.088C118.516 132.088 119.448 131.78 119.932 131.164C120.43 130.548 120.68 129.397 120.68 127.71C120.68 125.95 120.445 124.784 119.976 124.212C119.506 123.626 118.56 123.332 117.138 123.332C115.744 123.332 114.798 123.64 114.3 124.256C113.801 124.858 113.552 126.009 113.552 127.71ZM137.398 122.32H138.872L135.836 133.188H134.23L131.568 124.08L129.104 133.188H127.476L124.44 122.32H125.936L128.312 131.868L130.842 122.32H132.272L135.022 131.868L137.398 122.32ZM151.922 127.204L148.424 126.368C147.515 126.148 146.862 125.782 146.466 125.268C146.07 124.755 145.872 124.036 145.872 123.112C145.872 121.748 146.261 120.751 147.038 120.12C147.815 119.49 149.047 119.174 150.734 119.174C151.438 119.174 152.069 119.211 152.626 119.284C153.198 119.343 153.711 119.438 154.166 119.57V120.868C153.682 120.736 153.147 120.641 152.56 120.582C151.973 120.509 151.357 120.472 150.712 120.472C149.451 120.472 148.563 120.663 148.05 121.044C147.537 121.411 147.28 122.064 147.28 123.002C147.28 123.618 147.405 124.08 147.654 124.388C147.903 124.696 148.314 124.916 148.886 125.048L152.384 125.906C153.513 126.17 154.269 126.552 154.65 127.05C155.031 127.534 155.222 128.282 155.222 129.294C155.222 130.776 154.841 131.824 154.078 132.44C153.315 133.042 152.098 133.342 150.426 133.342C149.531 133.342 148.666 133.284 147.83 133.166C146.994 133.049 146.334 132.895 145.85 132.704V131.362C146.583 131.582 147.331 131.751 148.094 131.868C148.857 131.971 149.634 132.022 150.426 132.022C151.658 132.022 152.523 131.839 153.022 131.472C153.521 131.091 153.77 130.372 153.77 129.316C153.77 128.656 153.645 128.18 153.396 127.886C153.147 127.593 152.655 127.366 151.922 127.204ZM159.837 136.532H158.473V122.32H159.639L159.727 123.31H159.815C160.314 122.914 160.879 122.614 161.509 122.408C162.14 122.203 162.822 122.1 163.555 122.1C165.051 122.1 166.122 122.548 166.767 123.442C167.427 124.322 167.757 125.752 167.757 127.732C167.757 129.727 167.369 131.164 166.591 132.044C165.814 132.91 164.501 133.342 162.653 133.342C162.081 133.342 161.553 133.298 161.069 133.21C160.6 133.137 160.189 133.02 159.837 132.858V136.532ZM166.393 127.732C166.393 126.119 166.151 124.982 165.667 124.322C165.198 123.662 164.34 123.332 163.093 123.332C162.492 123.332 161.913 123.42 161.355 123.596C160.798 123.772 160.292 124.029 159.837 124.366V131.582C160.204 131.758 160.607 131.89 161.047 131.978C161.487 132.052 161.971 132.088 162.499 132.088C163.995 132.088 165.015 131.773 165.557 131.142C166.115 130.497 166.393 129.36 166.393 127.732ZM179.241 131.428V132.594C178.845 132.8 178.288 132.976 177.569 133.122C176.865 133.269 176.154 133.342 175.435 133.342C173.763 133.342 172.561 132.902 171.827 132.022C171.109 131.128 170.749 129.676 170.749 127.666C170.749 125.716 171.116 124.3 171.849 123.42C172.597 122.54 173.8 122.1 175.457 122.1C176.968 122.1 178.053 122.452 178.713 123.156C179.373 123.86 179.703 125.012 179.703 126.61C179.703 126.86 179.696 127.102 179.681 127.336C179.667 127.571 179.637 127.85 179.593 128.172H172.135C172.15 129.566 172.421 130.57 172.949 131.186C173.477 131.788 174.379 132.088 175.655 132.088C176.271 132.088 176.909 132.03 177.569 131.912C178.229 131.78 178.787 131.619 179.241 131.428ZM178.449 126.434C178.435 125.32 178.193 124.528 177.723 124.058C177.254 123.574 176.499 123.332 175.457 123.332C174.255 123.332 173.397 123.611 172.883 124.168C172.385 124.726 172.135 125.672 172.135 127.006H178.405C178.42 126.918 178.427 126.83 178.427 126.742C178.442 126.64 178.449 126.537 178.449 126.434ZM191.121 131.428V132.594C190.725 132.8 190.168 132.976 189.449 133.122C188.745 133.269 188.034 133.342 187.315 133.342C185.643 133.342 184.44 132.902 183.707 132.022C182.988 131.128 182.629 129.676 182.629 127.666C182.629 125.716 182.996 124.3 183.729 123.42C184.477 122.54 185.68 122.1 187.337 122.1C188.848 122.1 189.933 122.452 190.593 123.156C191.253 123.86 191.583 125.012 191.583 126.61C191.583 126.86 191.576 127.102 191.561 127.336C191.546 127.571 191.517 127.85 191.473 128.172H184.015C184.03 129.566 184.301 130.57 184.829 131.186C185.357 131.788 186.259 132.088 187.535 132.088C188.151 132.088 188.789 132.03 189.449 131.912C190.109 131.78 190.666 131.619 191.121 131.428ZM190.329 126.434C190.314 125.32 190.072 124.528 189.603 124.058C189.134 123.574 188.378 123.332 187.337 123.332C186.134 123.332 185.276 123.611 184.763 124.168C184.264 124.726 184.015 125.672 184.015 127.006H190.285C190.3 126.918 190.307 126.83 190.307 126.742C190.322 126.64 190.329 126.537 190.329 126.434ZM202.429 118.558H203.793V133.188H202.627L202.517 132.154H202.429C201.989 132.55 201.461 132.851 200.845 133.056C200.244 133.247 199.532 133.342 198.711 133.342C197.215 133.342 196.137 132.902 195.477 132.022C194.832 131.128 194.509 129.698 194.509 127.732C194.509 125.723 194.898 124.286 195.675 123.42C196.467 122.54 197.787 122.1 199.635 122.1C200.178 122.1 200.684 122.144 201.153 122.232C201.637 122.32 202.062 122.445 202.429 122.606V118.558ZM199.767 123.332C198.271 123.332 197.244 123.655 196.687 124.3C196.144 124.946 195.873 126.09 195.873 127.732C195.873 129.331 196.108 130.46 196.577 131.12C197.061 131.766 197.926 132.088 199.173 132.088C199.789 132.088 200.368 132.008 200.911 131.846C201.468 131.685 201.974 131.443 202.429 131.12V123.816C202.018 123.64 201.6 123.516 201.175 123.442C200.75 123.369 200.28 123.332 199.767 123.332Z" fill="white"/>
<defs>
<filter id="filter0_di_460_46" x="0" y="0" width="309" height="217" filterUnits="userSpaceOnUse" color-interpolation-filters="sRGB">
<feFlood flood-opacity="0" result="BackgroundImageFix"/>
<feColorMatrix in="SourceAlpha" type="matrix" values="0 0 0 0 0 0 0 0 0 0 0 0 0 0 0 0 0 0 127 0" result="hardAlpha"/>
<feMorphology radius="3" operator="dilate" in="SourceAlpha" result="effect1_dropShadow_460_46"/>
<feOffset dx="5" dy="6"/>
<feGaussianBlur stdDeviation="28"/>
<feComposite in2="hardAlpha" operator="out"/>
<feColorMatrix type="matrix" values="0 0 0 0 0.396078 0 0 0 0 0.419765 0 0 0 0 0.988235 0 0 0 0.73 0"/>
<feBlend mode="normal" in2="BackgroundImageFix" result="effect1_dropShadow_460_46"/>
<feBlend mode="normal" in="SourceGraphic" in2="effect1_dropShadow_460_46" result="shape"/>
<feColorMatrix in="SourceAlpha" type="matrix" values="0 0 0 0 0 0 0 0 0 0 0 0 0 0 0 0 0 0 127 0" result="hardAlpha"/>
<feMorphology radius="11" operator="dilate" in="SourceAlpha" result="effect2_innerShadow_460_46"/>
<feOffset dx="-13" dy="-10"/>
<feGaussianBlur stdDeviation="7.5"/>
<feComposite in2="hardAlpha" operator="arithmetic" k2="-1" k3="1"/>
<feColorMatrix type="matrix" values="0 0 0 0 0.518364 0 0 0 0 0.46524 0 0 0 0 0.7375 0 0 0 0.36 0"/>
<feBlend mode="normal" in2="shape" result="effect2_innerShadow_460_46"/>
</filter>
</defs>
</svg>
