<svg width="382" height="271" viewBox="0 0 382 271" fill="none" xmlns="http://www.w3.org/2000/svg">
<g filter="url(#filter0_di_467_24)">
<path d="M302 50H70C59.5066 50 51 58.5066 51 69V150.475C51 160.968 59.5066 169.475 70 169.475H128.143L140.18 206.765C141.071 209.526 144.972 209.54 145.883 206.786L158.229 169.475H302C312.493 169.475 321 160.968 321 150.475V69C321 58.5066 312.493 50 302 50Z" fill="#FF6A6A"/>
</g>
<path d="M82.5993 102.834C83.2006 102.834 83.8239 102.761 84.4693 102.614C85.1293 102.467 85.7599 102.269 86.3613 102.02V103.296C85.5546 103.619 84.8433 103.846 84.2273 103.978C83.6113 104.095 82.9733 104.154 82.3133 104.154C80.2306 104.154 78.7566 103.611 77.8913 102.526C77.0259 101.426 76.5933 99.6073 76.5933 97.07C76.5933 94.6207 77.0846 92.8313 78.0673 91.702C79.0646 90.558 80.6486 89.986 82.8193 89.986C83.4939 89.986 84.0953 90.0007 84.6233 90.03C85.1513 90.0593 85.6279 90.1107 86.0533 90.184V91.46C85.5546 91.4013 85.0486 91.3573 84.5353 91.328C84.0219 91.2987 83.4499 91.284 82.8193 91.284C81.0739 91.284 79.8419 91.7313 79.1233 92.626C78.4046 93.506 78.0453 94.9873 78.0453 97.07C78.0453 99.2113 78.3679 100.707 79.0133 101.558C79.6733 102.409 80.8686 102.834 82.5993 102.834ZM90.8369 89.37V104H89.4729V89.37H90.8369ZM96.3161 90.888H94.8201V89.37H96.3161V90.888ZM96.2501 104H94.8861V93.132H96.2501V104ZM107.801 102.174V103.34C107.42 103.575 106.877 103.773 106.173 103.934C105.469 104.081 104.729 104.154 103.951 104.154C102.411 104.154 101.333 103.743 100.717 102.922C100.101 102.086 99.7933 100.627 99.7933 98.544C99.7933 96.52 100.189 95.0753 100.981 94.21C101.788 93.3447 103.145 92.912 105.051 92.912C105.477 92.912 105.858 92.9267 106.195 92.956C106.533 92.9707 106.973 93.0147 107.515 93.088V94.32C106.797 94.232 106.291 94.1807 105.997 94.166C105.719 94.1513 105.403 94.144 105.051 94.144C103.57 94.144 102.551 94.4667 101.993 95.112C101.436 95.7573 101.157 96.9013 101.157 98.544C101.157 100.216 101.377 101.36 101.817 101.976C102.257 102.592 103.071 102.9 104.259 102.9C104.89 102.9 105.528 102.834 106.173 102.702C106.833 102.555 107.376 102.379 107.801 102.174ZM112.319 99.116V104H110.955V89.37H112.319V97.906H113.815L117.973 93.132H119.645L114.915 98.434L119.865 104H118.105L113.859 99.116H112.319ZM136.696 98.544C136.696 100.597 136.329 102.049 135.596 102.9C134.862 103.736 133.594 104.154 131.79 104.154C129.898 104.154 128.6 103.758 127.896 102.966C127.192 102.159 126.84 100.685 126.84 98.544C126.84 96.476 127.206 95.024 127.94 94.188C128.688 93.3373 129.971 92.912 131.79 92.912C133.667 92.912 134.95 93.3153 135.64 94.122C136.344 94.914 136.696 96.388 136.696 98.544ZM128.204 98.522C128.204 100.282 128.438 101.455 128.908 102.042C129.392 102.614 130.352 102.9 131.79 102.9C133.168 102.9 134.1 102.592 134.584 101.976C135.082 101.36 135.332 100.209 135.332 98.522C135.332 96.762 135.097 95.596 134.628 95.024C134.158 94.4373 133.212 94.144 131.79 94.144C130.396 94.144 129.45 94.452 128.952 95.068C128.453 95.6693 128.204 96.8207 128.204 98.522ZM141.621 104H140.257V93.132H141.423L141.511 94.188H141.577C142.222 93.748 142.875 93.4253 143.535 93.22C144.195 93.0147 144.913 92.912 145.691 92.912C146.893 92.912 147.803 93.2127 148.419 93.814C149.035 94.4153 149.343 95.3027 149.343 96.476V104H147.979V96.63C147.979 95.794 147.751 95.1707 147.297 94.76C146.842 94.3493 146.145 94.144 145.207 94.144C144.635 94.144 144.048 94.2393 143.447 94.43C142.845 94.606 142.237 94.8773 141.621 95.244V104ZM163.904 102.68V103.846C163.64 103.934 163.318 104.007 162.936 104.066C162.57 104.125 162.21 104.154 161.858 104.154C160.568 104.154 159.651 103.868 159.108 103.296C158.566 102.709 158.294 101.697 158.294 100.26V94.32H156.578V93.132H158.316L158.558 90.448H159.658V93.132H163.772V94.32H159.658V100.216C159.658 101.257 159.842 101.969 160.208 102.35C160.575 102.717 161.213 102.9 162.122 102.9C162.416 102.9 162.731 102.878 163.068 102.834C163.42 102.79 163.699 102.739 163.904 102.68ZM168.066 104H166.702V89.37H168.066V94.078C168.814 93.6673 169.518 93.374 170.178 93.198C170.838 93.0073 171.498 92.912 172.158 92.912C173.346 92.912 174.248 93.2127 174.864 93.814C175.48 94.4153 175.788 95.3027 175.788 96.476V104H174.424V96.63C174.424 95.7793 174.204 95.156 173.764 94.76C173.324 94.3493 172.642 94.144 171.718 94.144C171.131 94.144 170.522 94.232 169.892 94.408C169.276 94.5693 168.667 94.8113 168.066 95.134V104ZM181.172 90.888H179.676V89.37H181.172V90.888ZM181.106 104H179.742V93.132H181.106V104ZM188.741 94.144C187.729 94.144 187.018 94.2833 186.607 94.562C186.196 94.826 185.991 95.354 185.991 96.146C185.991 96.5713 186.086 96.894 186.277 97.114C186.468 97.3193 186.783 97.4587 187.223 97.532L190.061 97.972C190.956 98.104 191.579 98.3753 191.931 98.786C192.283 99.182 192.459 99.82 192.459 100.7C192.459 101.917 192.166 102.797 191.579 103.34C190.992 103.883 190.024 104.154 188.675 104.154C187.839 104.154 187.054 104.103 186.321 104C185.588 103.912 185.001 103.795 184.561 103.648V102.35C184.986 102.511 185.551 102.643 186.255 102.746C186.974 102.849 187.714 102.9 188.477 102.9C189.445 102.9 190.12 102.746 190.501 102.438C190.897 102.115 191.095 101.565 191.095 100.788C191.095 100.26 190.985 99.886 190.765 99.666C190.545 99.4313 190.127 99.2627 189.511 99.16L186.695 98.72C185.991 98.6173 185.47 98.3607 185.133 97.95C184.796 97.5393 184.627 96.9453 184.627 96.168C184.627 95.024 184.95 94.1953 185.595 93.682C186.255 93.1687 187.282 92.912 188.675 92.912C189.262 92.912 189.782 92.9267 190.237 92.956C190.706 92.9853 191.198 93.044 191.711 93.132V94.364C191.3 94.2907 190.838 94.2393 190.325 94.21C189.826 94.166 189.298 94.144 188.741 94.144ZM205.617 92.912C207.128 92.912 208.206 93.352 208.851 94.232C209.497 95.0973 209.819 96.52 209.819 98.5C209.819 100.524 209.423 101.976 208.631 102.856C207.839 103.721 206.505 104.154 204.627 104.154C203.865 104.154 203.139 104.103 202.449 104C201.76 103.912 201.122 103.78 200.535 103.604V89.37H201.899V93.946C202.427 93.6087 203.007 93.352 203.637 93.176C204.283 93 204.943 92.912 205.617 92.912ZM208.455 98.5C208.455 96.9013 208.221 95.7793 207.751 95.134C207.282 94.474 206.417 94.144 205.155 94.144C204.554 94.144 203.967 94.2247 203.395 94.386C202.838 94.5473 202.339 94.7747 201.899 95.068V102.548C202.251 102.665 202.647 102.753 203.087 102.812C203.542 102.871 204.033 102.9 204.561 102.9C206.057 102.9 207.077 102.577 207.619 101.932C208.177 101.287 208.455 100.143 208.455 98.5ZM216.838 104.154C215.65 104.154 214.755 103.853 214.154 103.252C213.552 102.651 213.252 101.756 213.252 100.568V93.132H214.616V100.414C214.616 101.265 214.828 101.888 215.254 102.284C215.679 102.68 216.354 102.878 217.278 102.878C217.82 102.878 218.37 102.805 218.928 102.658C219.485 102.497 220.064 102.262 220.666 101.954V93.132H222.03V104H220.798L220.732 103.01H220.71C219.962 103.421 219.28 103.714 218.664 103.89C218.062 104.066 217.454 104.154 216.838 104.154ZM232.283 102.68V103.846C232.019 103.934 231.696 104.007 231.315 104.066C230.948 104.125 230.589 104.154 230.237 104.154C228.946 104.154 228.03 103.868 227.487 103.296C226.944 102.709 226.673 101.697 226.673 100.26V94.32H224.957V93.132H226.695L226.937 90.448H228.037V93.132H232.151V94.32H228.037V100.216C228.037 101.257 228.22 101.969 228.587 102.35C228.954 102.717 229.592 102.9 230.501 102.9C230.794 102.9 231.11 102.878 231.447 102.834C231.799 102.79 232.078 102.739 232.283 102.68ZM241.284 102.68V103.846C241.02 103.934 240.698 104.007 240.316 104.066C239.95 104.125 239.59 104.154 239.238 104.154C237.948 104.154 237.031 103.868 236.488 103.296C235.946 102.709 235.674 101.697 235.674 100.26V94.32H233.958V93.132H235.696L235.938 90.448H237.038V93.132H241.152V94.32H237.038V100.216C237.038 101.257 237.222 101.969 237.588 102.35C237.955 102.717 238.593 102.9 239.502 102.9C239.796 102.9 240.111 102.878 240.448 102.834C240.8 102.79 241.079 102.739 241.284 102.68ZM253.302 98.544C253.302 100.597 252.936 102.049 252.202 102.9C251.469 103.736 250.2 104.154 248.396 104.154C246.504 104.154 245.206 103.758 244.502 102.966C243.798 102.159 243.446 100.685 243.446 98.544C243.446 96.476 243.813 95.024 244.546 94.188C245.294 93.3373 246.578 92.912 248.396 92.912C250.274 92.912 251.557 93.3153 252.246 94.122C252.95 94.914 253.302 96.388 253.302 98.544ZM244.81 98.522C244.81 100.282 245.045 101.455 245.514 102.042C245.998 102.614 246.959 102.9 248.396 102.9C249.775 102.9 250.706 102.592 251.19 101.976C251.689 101.36 251.938 100.209 251.938 98.522C251.938 96.762 251.704 95.596 251.234 95.024C250.765 94.4373 249.819 94.144 248.396 94.144C247.003 94.144 246.057 94.452 245.558 95.068C245.06 95.6693 244.81 96.8207 244.81 98.522ZM258.228 104H256.864V93.132H258.03L258.118 94.188H258.184C258.829 93.748 259.482 93.4253 260.142 93.22C260.802 93.0147 261.52 92.912 262.298 92.912C263.5 92.912 264.41 93.2127 265.026 93.814C265.642 94.4153 265.95 95.3027 265.95 96.476V104H264.586V96.63C264.586 95.794 264.358 95.1707 263.904 94.76C263.449 94.3493 262.752 94.144 261.814 94.144C261.242 94.144 260.655 94.2393 260.054 94.43C259.452 94.606 258.844 94.8773 258.228 95.244V104ZM280.511 102.68V103.846C280.247 103.934 279.925 104.007 279.543 104.066C279.177 104.125 278.817 104.154 278.465 104.154C277.175 104.154 276.258 103.868 275.715 103.296C275.173 102.709 274.901 101.697 274.901 100.26V94.32H273.185V93.132H274.923L275.165 90.448H276.265V93.132H280.379V94.32H276.265V100.216C276.265 101.257 276.449 101.969 276.815 102.35C277.182 102.717 277.82 102.9 278.729 102.9C279.023 102.9 279.338 102.878 279.675 102.834C280.027 102.79 280.306 102.739 280.511 102.68ZM292.529 98.544C292.529 100.597 292.163 102.049 291.429 102.9C290.696 103.736 289.427 104.154 287.623 104.154C285.731 104.154 284.433 103.758 283.729 102.966C283.025 102.159 282.673 100.685 282.673 98.544C282.673 96.476 283.04 95.024 283.773 94.188C284.521 93.3373 285.805 92.912 287.623 92.912C289.501 92.912 290.784 93.3153 291.473 94.122C292.177 94.914 292.529 96.388 292.529 98.544ZM284.037 98.522C284.037 100.282 284.272 101.455 284.741 102.042C285.225 102.614 286.186 102.9 287.623 102.9C289.002 102.9 289.933 102.592 290.417 101.976C290.916 101.36 291.165 100.209 291.165 98.522C291.165 96.762 290.931 95.596 290.461 95.024C289.992 94.4373 289.046 94.144 287.623 94.144C286.23 94.144 285.284 94.452 284.785 95.068C284.287 95.6693 284.037 96.8207 284.037 98.522ZM92.7141 136.344H89.4141V122.132H92.3181L92.4941 123.144H92.5381C92.9341 122.733 93.4035 122.425 93.9461 122.22C94.5035 122.015 95.1341 121.912 95.8381 121.912C97.2755 121.912 98.2948 122.345 98.8961 123.21C99.5121 124.075 99.8201 125.527 99.8201 127.566C99.8201 129.546 99.4315 130.983 98.6541 131.878C97.8915 132.773 96.6448 133.22 94.9141 133.22C94.4888 133.22 94.0855 133.191 93.7041 133.132C93.3375 133.088 93.0075 133.022 92.7141 132.934V136.344ZM96.5201 127.566C96.5201 126.466 96.4028 125.747 96.1681 125.41C95.9335 125.058 95.4275 124.882 94.6501 124.882C94.2688 124.882 93.9095 124.911 93.5721 124.97C93.2495 125.029 92.9635 125.117 92.7141 125.234V129.876C92.9341 129.979 93.1835 130.052 93.4621 130.096C93.7555 130.14 94.0855 130.162 94.4521 130.162C95.3468 130.162 95.9115 130.008 96.1461 129.7C96.3955 129.377 96.5201 128.666 96.5201 127.566ZM105.496 118.37V133H102.196V118.37H105.496ZM110.916 133.22C109.801 133.22 108.98 132.941 108.452 132.384C107.938 131.827 107.682 130.947 107.682 129.744C107.682 128.512 107.99 127.647 108.606 127.148C109.236 126.649 110.314 126.4 111.84 126.4C112.192 126.4 112.551 126.422 112.918 126.466C113.299 126.495 113.629 126.539 113.908 126.598V125.806C113.908 125.454 113.754 125.197 113.446 125.036C113.152 124.86 112.698 124.772 112.082 124.772C111.378 124.772 110.747 124.794 110.19 124.838C109.647 124.867 109.148 124.926 108.694 125.014V122.308C109.236 122.176 109.867 122.081 110.586 122.022C111.304 121.949 112.14 121.912 113.094 121.912C114.443 121.912 115.462 122.213 116.152 122.814C116.856 123.415 117.208 124.303 117.208 125.476V133H114.128L114.018 132.076H113.952C113.497 132.428 112.998 132.707 112.456 132.912C111.913 133.117 111.4 133.22 110.916 133.22ZM112.28 128.578C111.693 128.578 111.297 128.644 111.092 128.776C110.886 128.893 110.784 129.15 110.784 129.546C110.784 129.913 110.864 130.169 111.026 130.316C111.202 130.448 111.502 130.514 111.928 130.514C112.25 130.514 112.588 130.47 112.94 130.382C113.292 130.294 113.614 130.184 113.908 130.052V128.71C113.732 128.666 113.512 128.637 113.248 128.622C112.984 128.593 112.661 128.578 112.28 128.578ZM121.05 133.748C121.563 133.748 121.937 133.675 122.172 133.528C122.421 133.396 122.59 133.147 122.678 132.78L118.586 122.132H122.26L124.35 129.568L126.33 122.132H129.872L126 133.22C125.589 134.408 125.046 135.259 124.372 135.772C123.712 136.3 122.832 136.564 121.732 136.564C121.424 136.564 121.101 136.549 120.764 136.52C120.441 136.491 120.148 136.447 119.884 136.388V133.704C120.001 133.719 120.133 133.726 120.28 133.726C120.426 133.741 120.683 133.748 121.05 133.748ZM146.739 131.68V132.846C146.475 132.934 146.153 133.007 145.771 133.066C145.405 133.125 145.045 133.154 144.693 133.154C143.403 133.154 142.486 132.868 141.943 132.296C141.401 131.709 141.129 130.697 141.129 129.26V123.32H139.413V122.132H141.151L141.393 119.448H142.493V122.132H146.607V123.32H142.493V129.216C142.493 130.257 142.677 130.969 143.043 131.35C143.41 131.717 144.048 131.9 144.957 131.9C145.251 131.9 145.566 131.878 145.903 131.834C146.255 131.79 146.534 131.739 146.739 131.68ZM150.9 133H149.536V118.37H150.9V123.078C151.648 122.667 152.352 122.374 153.012 122.198C153.672 122.007 154.332 121.912 154.992 121.912C156.18 121.912 157.082 122.213 157.698 122.814C158.314 123.415 158.622 124.303 158.622 125.476V133H157.258V125.63C157.258 124.779 157.038 124.156 156.598 123.76C156.158 123.349 155.476 123.144 154.552 123.144C153.966 123.144 153.357 123.232 152.726 123.408C152.11 123.569 151.502 123.811 150.9 124.134V133ZM170.541 131.24V132.406C170.145 132.611 169.587 132.787 168.869 132.934C168.165 133.081 167.453 133.154 166.735 133.154C165.063 133.154 163.86 132.714 163.127 131.834C162.408 130.939 162.049 129.487 162.049 127.478C162.049 125.527 162.415 124.112 163.149 123.232C163.897 122.352 165.099 121.912 166.757 121.912C168.267 121.912 169.353 122.264 170.013 122.968C170.673 123.672 171.003 124.823 171.003 126.422C171.003 126.671 170.995 126.913 170.981 127.148C170.966 127.383 170.937 127.661 170.893 127.984H163.435C163.449 129.377 163.721 130.382 164.249 130.998C164.777 131.599 165.679 131.9 166.955 131.9C167.571 131.9 168.209 131.841 168.869 131.724C169.529 131.592 170.086 131.431 170.541 131.24ZM169.749 126.246C169.734 125.131 169.492 124.339 169.023 123.87C168.553 123.386 167.798 123.144 166.757 123.144C165.554 123.144 164.696 123.423 164.183 123.98C163.684 124.537 163.435 125.483 163.435 126.818H169.705C169.719 126.73 169.727 126.642 169.727 126.554C169.741 126.451 169.749 126.349 169.749 126.246ZM182.833 123.144C181.821 123.144 181.109 123.283 180.699 123.562C180.288 123.826 180.083 124.354 180.083 125.146C180.083 125.571 180.178 125.894 180.369 126.114C180.559 126.319 180.875 126.459 181.315 126.532L184.153 126.972C185.047 127.104 185.671 127.375 186.023 127.786C186.375 128.182 186.551 128.82 186.551 129.7C186.551 130.917 186.257 131.797 185.671 132.34C185.084 132.883 184.116 133.154 182.767 133.154C181.931 133.154 181.146 133.103 180.413 133C179.679 132.912 179.093 132.795 178.653 132.648V131.35C179.078 131.511 179.643 131.643 180.347 131.746C181.065 131.849 181.806 131.9 182.569 131.9C183.537 131.9 184.211 131.746 184.593 131.438C184.989 131.115 185.187 130.565 185.187 129.788C185.187 129.26 185.077 128.886 184.857 128.666C184.637 128.431 184.219 128.263 183.603 128.16L180.787 127.72C180.083 127.617 179.562 127.361 179.225 126.95C178.887 126.539 178.719 125.945 178.719 125.168C178.719 124.024 179.041 123.195 179.687 122.682C180.347 122.169 181.373 121.912 182.767 121.912C183.353 121.912 183.874 121.927 184.329 121.956C184.798 121.985 185.289 122.044 185.803 122.132V123.364C185.392 123.291 184.93 123.239 184.417 123.21C183.918 123.166 183.39 123.144 182.833 123.144ZM191.289 119.888H189.793V118.37H191.289V119.888ZM191.223 133H189.859V122.132H191.223V133ZM196.636 133H195.272V122.132H196.504L196.592 123.034H196.636C197.34 122.623 197.956 122.337 198.484 122.176C199.027 122 199.57 121.912 200.112 121.912C200.728 121.912 201.256 122.015 201.696 122.22C202.151 122.411 202.51 122.697 202.774 123.078H202.818C203.478 122.682 204.124 122.389 204.754 122.198C205.4 122.007 206.06 121.912 206.734 121.912C207.776 121.912 208.56 122.183 209.088 122.726C209.631 123.254 209.902 124.039 209.902 125.08V133H208.538V125.234C208.538 124.515 208.348 123.987 207.966 123.65C207.585 123.313 206.991 123.144 206.184 123.144C205.715 123.144 205.224 123.217 204.71 123.364C204.212 123.511 203.698 123.731 203.17 124.024C203.214 124.2 203.244 124.376 203.258 124.552C203.273 124.728 203.28 124.904 203.28 125.08V133H201.916V125.234C201.916 124.515 201.726 123.987 201.344 123.65C200.963 123.313 200.362 123.144 199.54 123.144C199.13 123.144 198.697 123.217 198.242 123.364C197.788 123.511 197.252 123.76 196.636 124.112V133ZM217.353 133.154C216.165 133.154 215.271 132.853 214.669 132.252C214.068 131.651 213.767 130.756 213.767 129.568V122.132H215.131V129.414C215.131 130.265 215.344 130.888 215.769 131.284C216.195 131.68 216.869 131.878 217.793 131.878C218.336 131.878 218.886 131.805 219.443 131.658C220.001 131.497 220.58 131.262 221.181 130.954V122.132H222.545V133H221.313L221.247 132.01H221.225C220.477 132.421 219.795 132.714 219.179 132.89C218.578 133.066 217.969 133.154 217.353 133.154ZM227.959 118.37V133H226.595V118.37H227.959ZM234.45 133.154C233.335 133.154 232.514 132.89 231.986 132.362C231.473 131.834 231.216 130.998 231.216 129.854C231.216 128.71 231.531 127.896 232.162 127.412C232.793 126.928 233.863 126.686 235.374 126.686C235.917 126.686 236.445 126.708 236.958 126.752C237.471 126.796 237.97 126.862 238.454 126.95V125.806C238.454 124.838 238.234 124.156 237.794 123.76C237.354 123.349 236.635 123.144 235.638 123.144C234.963 123.144 234.369 123.173 233.856 123.232C233.357 123.291 232.844 123.386 232.316 123.518V122.308C232.932 122.161 233.519 122.059 234.076 122C234.648 121.941 235.308 121.912 236.056 121.912C237.347 121.912 238.293 122.22 238.894 122.836C239.51 123.437 239.818 124.391 239.818 125.696V133H238.586L238.52 131.922H238.476C238.021 132.289 237.427 132.589 236.694 132.824C235.961 133.044 235.213 133.154 234.45 133.154ZM235.528 127.808C234.413 127.808 233.629 127.955 233.174 128.248C232.734 128.541 232.514 129.047 232.514 129.766C232.514 130.529 232.697 131.079 233.064 131.416C233.431 131.753 234.025 131.922 234.846 131.922C235.506 131.922 236.166 131.827 236.826 131.636C237.501 131.431 238.043 131.181 238.454 130.888V128.072C237.97 127.984 237.486 127.918 237.002 127.874C236.533 127.83 236.041 127.808 235.528 127.808ZM249.834 131.68V132.846C249.57 132.934 249.248 133.007 248.866 133.066C248.5 133.125 248.14 133.154 247.788 133.154C246.498 133.154 245.581 132.868 245.038 132.296C244.496 131.709 244.224 130.697 244.224 129.26V123.32H242.508V122.132H244.246L244.488 119.448H245.588V122.132H249.702V123.32H245.588V129.216C245.588 130.257 245.772 130.969 246.138 131.35C246.505 131.717 247.143 131.9 248.052 131.9C248.346 131.9 248.661 131.878 248.998 131.834C249.35 131.79 249.629 131.739 249.834 131.68ZM254.061 119.888H252.565V118.37H254.061V119.888ZM253.995 133H252.631V122.132H253.995V133ZM267.394 127.544C267.394 129.597 267.028 131.049 266.294 131.9C265.561 132.736 264.292 133.154 262.488 133.154C260.596 133.154 259.298 132.758 258.594 131.966C257.89 131.159 257.538 129.685 257.538 127.544C257.538 125.476 257.905 124.024 258.638 123.188C259.386 122.337 260.67 121.912 262.488 121.912C264.366 121.912 265.649 122.315 266.338 123.122C267.042 123.914 267.394 125.388 267.394 127.544ZM258.902 127.522C258.902 129.282 259.137 130.455 259.606 131.042C260.09 131.614 261.051 131.9 262.488 131.9C263.867 131.9 264.798 131.592 265.282 130.976C265.781 130.36 266.03 129.209 266.03 127.522C266.03 125.762 265.796 124.596 265.326 124.024C264.857 123.437 263.911 123.144 262.488 123.144C261.095 123.144 260.149 123.452 259.65 124.068C259.152 124.669 258.902 125.821 258.902 127.522ZM272.32 133H270.956V122.132H272.122L272.21 123.188H272.276C272.921 122.748 273.574 122.425 274.234 122.22C274.894 122.015 275.612 121.912 276.39 121.912C277.592 121.912 278.502 122.213 279.118 122.814C279.734 123.415 280.042 124.303 280.042 125.476V133H278.678V125.63C278.678 124.794 278.45 124.171 277.996 123.76C277.541 123.349 276.844 123.144 275.906 123.144C275.334 123.144 274.747 123.239 274.146 123.43C273.544 123.606 272.936 123.877 272.32 124.244V133Z" fill="#FFBCBC"/>
<defs>
<filter id="filter0_di_467_24" x="0" y="0" width="382" height="270.843" filterUnits="userSpaceOnUse" color-interpolation-filters="sRGB">
<feFlood flood-opacity="0" result="BackgroundImageFix"/>
<feColorMatrix in="SourceAlpha" type="matrix" values="0 0 0 0 0 0 0 0 0 0 0 0 0 0 0 0 0 0 127 0" result="hardAlpha"/>
<feOffset dx="5" dy="6"/>
<feGaussianBlur stdDeviation="28"/>
<feComposite in2="hardAlpha" operator="out"/>
<feColorMatrix type="matrix" values="0 0 0 0 0.988235 0 0 0 0 0.396078 0 0 0 0 0.396078 0 0 0 0.8 0"/>
<feBlend mode="normal" in2="BackgroundImageFix" result="effect1_dropShadow_467_24"/>
<feBlend mode="normal" in="SourceGraphic" in2="effect1_dropShadow_467_24" result="shape"/>
<feColorMatrix in="SourceAlpha" type="matrix" values="0 0 0 0 0 0 0 0 0 0 0 0 0 0 0 0 0 0 127 0" result="hardAlpha"/>
<feOffset dx="-4" dy="-2"/>
<feGaussianBlur stdDeviation="7"/>
<feComposite in2="hardAlpha" operator="arithmetic" k2="-1" k3="1"/>
<feColorMatrix type="matrix" values="0 0 0 0 0.811765 0 0 0 0 0 0 0 0 0 0 0 0 0 1 0"/>
<feBlend mode="normal" in2="shape" result="effect2_innerShadow_467_24"/>
</filter>
</defs>
</svg>
