<svg width="382" height="271" viewBox="0 0 382 271" fill="none" xmlns="http://www.w3.org/2000/svg">
<g filter="url(#filter0_di_470_5)">
<path d="M302 50H70C59.5066 50 51 58.5066 51 69V150.475C51 160.968 59.5066 169.475 70 169.475H128.143L140.18 206.765C141.071 209.526 144.972 209.54 145.883 206.786L158.229 169.475H302C312.493 169.475 321 160.968 321 150.475V69C321 58.5066 312.493 50 302 50Z" fill="#FF6A6A"/>
</g>
<path d="M109.781 90.206V91.504H104.963V104H103.555V91.504H98.7367V90.206H109.781ZM113.985 104H112.621V89.37H113.985V94.078C114.733 93.6673 115.437 93.374 116.097 93.198C116.757 93.0073 117.417 92.912 118.077 92.912C119.265 92.912 120.167 93.2127 120.783 93.814C121.399 94.4153 121.707 95.3027 121.707 96.476V104H120.343V96.63C120.343 95.7793 120.123 95.156 119.683 94.76C119.243 94.3493 118.561 94.144 117.637 94.144C117.05 94.144 116.442 94.232 115.811 94.408C115.195 94.5693 114.586 94.8113 113.985 95.134V104ZM127.091 90.888H125.595V89.37H127.091V90.888ZM127.025 104H125.661V93.132H127.025V104ZM134.661 94.144C133.649 94.144 132.937 94.2833 132.527 94.562C132.116 94.826 131.911 95.354 131.911 96.146C131.911 96.5713 132.006 96.894 132.197 97.114C132.387 97.3193 132.703 97.4587 133.143 97.532L135.981 97.972C136.875 98.104 137.499 98.3753 137.851 98.786C138.203 99.182 138.379 99.82 138.379 100.7C138.379 101.917 138.085 102.797 137.499 103.34C136.912 103.883 135.944 104.154 134.595 104.154C133.759 104.154 132.974 104.103 132.241 104C131.507 103.912 130.921 103.795 130.481 103.648V102.35C130.906 102.511 131.471 102.643 132.175 102.746C132.893 102.849 133.634 102.9 134.397 102.9C135.365 102.9 136.039 102.746 136.421 102.438C136.817 102.115 137.015 101.565 137.015 100.788C137.015 100.26 136.905 99.886 136.685 99.666C136.465 99.4313 136.047 99.2627 135.431 99.16L132.615 98.72C131.911 98.6173 131.39 98.3607 131.053 97.95C130.715 97.5393 130.547 96.9453 130.547 96.168C130.547 95.024 130.869 94.1953 131.515 93.682C132.175 93.1687 133.201 92.912 134.595 92.912C135.181 92.912 135.702 92.9267 136.157 92.956C136.626 92.9853 137.117 93.044 137.631 93.132V94.364C137.22 94.2907 136.758 94.2393 136.245 94.21C135.746 94.166 135.218 94.144 134.661 94.144ZM151.537 92.912C153.048 92.912 154.126 93.352 154.771 94.232C155.416 95.0973 155.739 96.52 155.739 98.5C155.739 100.524 155.343 101.976 154.551 102.856C153.759 103.721 152.424 104.154 150.547 104.154C149.784 104.154 149.058 104.103 148.369 104C147.68 103.912 147.042 103.78 146.455 103.604V89.37H147.819V93.946C148.347 93.6087 148.926 93.352 149.557 93.176C150.202 93 150.862 92.912 151.537 92.912ZM154.375 98.5C154.375 96.9013 154.14 95.7793 153.671 95.134C153.202 94.474 152.336 94.144 151.075 94.144C150.474 94.144 149.887 94.2247 149.315 94.386C148.758 94.5473 148.259 94.7747 147.819 95.068V102.548C148.171 102.665 148.567 102.753 149.007 102.812C149.462 102.871 149.953 102.9 150.481 102.9C151.977 102.9 152.996 102.577 153.539 101.932C154.096 101.287 154.375 100.143 154.375 98.5ZM161.701 104.154C160.587 104.154 159.765 103.89 159.237 103.362C158.724 102.834 158.467 101.998 158.467 100.854C158.467 99.71 158.783 98.896 159.413 98.412C160.044 97.928 161.115 97.686 162.625 97.686C163.168 97.686 163.696 97.708 164.209 97.752C164.723 97.796 165.221 97.862 165.705 97.95V96.806C165.705 95.838 165.485 95.156 165.045 94.76C164.605 94.3493 163.887 94.144 162.889 94.144C162.215 94.144 161.621 94.1733 161.107 94.232C160.609 94.2907 160.095 94.386 159.567 94.518V93.308C160.183 93.1613 160.77 93.0587 161.327 93C161.899 92.9413 162.559 92.912 163.307 92.912C164.598 92.912 165.544 93.22 166.145 93.836C166.761 94.4373 167.069 95.3907 167.069 96.696V104H165.837L165.771 102.922H165.727C165.273 103.289 164.679 103.589 163.945 103.824C163.212 104.044 162.464 104.154 161.701 104.154ZM162.779 98.808C161.665 98.808 160.88 98.9547 160.425 99.248C159.985 99.5413 159.765 100.047 159.765 100.766C159.765 101.529 159.949 102.079 160.315 102.416C160.682 102.753 161.276 102.922 162.097 102.922C162.757 102.922 163.417 102.827 164.077 102.636C164.752 102.431 165.295 102.181 165.705 101.888V99.072C165.221 98.984 164.737 98.918 164.253 98.874C163.784 98.83 163.293 98.808 162.779 98.808ZM172.396 89.37V104H171.032V89.37H172.396ZM177.809 89.37V104H176.445V89.37H177.809ZM194.613 102.24V103.406C194.217 103.611 193.659 103.787 192.941 103.934C192.237 104.081 191.525 104.154 190.807 104.154C189.135 104.154 187.932 103.714 187.199 102.834C186.48 101.939 186.121 100.487 186.121 98.478C186.121 96.5273 186.487 95.112 187.221 94.232C187.969 93.352 189.171 92.912 190.829 92.912C192.339 92.912 193.425 93.264 194.085 93.968C194.745 94.672 195.075 95.8233 195.075 97.422C195.075 97.6713 195.067 97.9133 195.053 98.148C195.038 98.3827 195.009 98.6613 194.965 98.984H187.507C187.521 100.377 187.793 101.382 188.321 101.998C188.849 102.599 189.751 102.9 191.027 102.9C191.643 102.9 192.281 102.841 192.941 102.724C193.601 102.592 194.158 102.431 194.613 102.24ZM193.821 97.246C193.806 96.1313 193.564 95.3393 193.095 94.87C192.625 94.386 191.87 94.144 190.829 94.144C189.626 94.144 188.768 94.4227 188.255 94.98C187.756 95.5373 187.507 96.4833 187.507 97.818H193.777C193.791 97.73 193.799 97.642 193.799 97.554C193.813 97.4513 193.821 97.3487 193.821 97.246ZM202.448 98.346L206.166 104H204.626L201.59 99.292L198.576 104H197.124L200.842 98.368L197.322 93.132H198.95L201.678 97.444L204.494 93.132H205.968L202.448 98.346ZM216.568 102.24V103.406C216.172 103.611 215.615 103.787 214.896 103.934C214.192 104.081 213.481 104.154 212.762 104.154C211.09 104.154 209.887 103.714 209.154 102.834C208.435 101.939 208.076 100.487 208.076 98.478C208.076 96.5273 208.443 95.112 209.176 94.232C209.924 93.352 211.127 92.912 212.784 92.912C214.295 92.912 215.38 93.264 216.04 93.968C216.7 94.672 217.03 95.8233 217.03 97.422C217.03 97.6713 217.023 97.9133 217.008 98.148C216.993 98.3827 216.964 98.6613 216.92 98.984H209.462C209.477 100.377 209.748 101.382 210.276 101.998C210.804 102.599 211.706 102.9 212.982 102.9C213.598 102.9 214.236 102.841 214.896 102.724C215.556 102.592 216.113 102.431 216.568 102.24ZM215.776 97.246C215.761 96.1313 215.519 95.3393 215.05 94.87C214.581 94.386 213.825 94.144 212.784 94.144C211.581 94.144 210.723 94.4227 210.21 94.98C209.711 95.5373 209.462 96.4833 209.462 97.818H215.732C215.747 97.73 215.754 97.642 215.754 97.554C215.769 97.4513 215.776 97.3487 215.776 97.246ZM227.986 102.174V103.34C227.605 103.575 227.062 103.773 226.358 103.934C225.654 104.081 224.913 104.154 224.136 104.154C222.596 104.154 221.518 103.743 220.902 102.922C220.286 102.086 219.978 100.627 219.978 98.544C219.978 96.52 220.374 95.0753 221.166 94.21C221.973 93.3447 223.329 92.912 225.236 92.912C225.661 92.912 226.043 92.9267 226.38 92.956C226.717 92.9707 227.157 93.0147 227.7 93.088V94.32C226.981 94.232 226.475 94.1807 226.182 94.166C225.903 94.1513 225.588 94.144 225.236 94.144C223.755 94.144 222.735 94.4667 222.178 95.112C221.621 95.7573 221.342 96.9013 221.342 98.544C221.342 100.216 221.562 101.36 222.002 101.976C222.442 102.592 223.256 102.9 224.444 102.9C225.075 102.9 225.713 102.834 226.358 102.702C227.018 102.555 227.561 102.379 227.986 102.174ZM234.637 104.154C233.449 104.154 232.555 103.853 231.953 103.252C231.352 102.651 231.051 101.756 231.051 100.568V93.132H232.415V100.414C232.415 101.265 232.628 101.888 233.053 102.284C233.479 102.68 234.153 102.878 235.077 102.878C235.62 102.878 236.17 102.805 236.727 102.658C237.285 102.497 237.864 102.262 238.465 101.954V93.132H239.829V104H238.597L238.531 103.01H238.509C237.761 103.421 237.079 103.714 236.463 103.89C235.862 104.066 235.253 104.154 234.637 104.154ZM250.083 102.68V103.846C249.819 103.934 249.496 104.007 249.115 104.066C248.748 104.125 248.389 104.154 248.037 104.154C246.746 104.154 245.829 103.868 245.287 103.296C244.744 102.709 244.473 101.697 244.473 100.26V94.32H242.757V93.132H244.495L244.737 90.448H245.837V93.132H249.951V94.32H245.837V100.216C245.837 101.257 246.02 101.969 246.387 102.35C246.753 102.717 247.391 102.9 248.301 102.9C248.594 102.9 248.909 102.878 249.247 102.834C249.599 102.79 249.877 102.739 250.083 102.68ZM260.715 102.24V103.406C260.319 103.611 259.762 103.787 259.043 103.934C258.339 104.081 257.628 104.154 256.909 104.154C255.237 104.154 254.034 103.714 253.301 102.834C252.582 101.939 252.223 100.487 252.223 98.478C252.223 96.5273 252.59 95.112 253.323 94.232C254.071 93.352 255.274 92.912 256.931 92.912C258.442 92.912 259.527 93.264 260.187 93.968C260.847 94.672 261.177 95.8233 261.177 97.422C261.177 97.6713 261.17 97.9133 261.155 98.148C261.14 98.3827 261.111 98.6613 261.067 98.984H253.609C253.624 100.377 253.895 101.382 254.423 101.998C254.951 102.599 255.853 102.9 257.129 102.9C257.745 102.9 258.383 102.841 259.043 102.724C259.703 102.592 260.26 102.431 260.715 102.24ZM259.923 97.246C259.908 96.1313 259.666 95.3393 259.197 94.87C258.728 94.386 257.972 94.144 256.931 94.144C255.728 94.144 254.87 94.4227 254.357 94.98C253.858 95.5373 253.609 96.4833 253.609 97.818H259.879C259.894 97.73 259.901 97.642 259.901 97.554C259.916 97.4513 259.923 97.3487 259.923 97.246ZM268.217 94.144C267.205 94.144 266.494 94.2833 266.083 94.562C265.672 94.826 265.467 95.354 265.467 96.146C265.467 96.5713 265.562 96.894 265.753 97.114C265.944 97.3193 266.259 97.4587 266.699 97.532L269.537 97.972C270.432 98.104 271.055 98.3753 271.407 98.786C271.759 99.182 271.935 99.82 271.935 100.7C271.935 101.917 271.642 102.797 271.055 103.34C270.468 103.883 269.5 104.154 268.151 104.154C267.315 104.154 266.53 104.103 265.797 104C265.064 103.912 264.477 103.795 264.037 103.648V102.35C264.462 102.511 265.027 102.643 265.731 102.746C266.45 102.849 267.19 102.9 267.953 102.9C268.921 102.9 269.596 102.746 269.977 102.438C270.373 102.115 270.571 101.565 270.571 100.788C270.571 100.26 270.461 99.886 270.241 99.666C270.021 99.4313 269.603 99.2627 268.987 99.16L266.171 98.72C265.467 98.6173 264.946 98.3607 264.609 97.95C264.272 97.5393 264.103 96.9453 264.103 96.168C264.103 95.024 264.426 94.1953 265.071 93.682C265.731 93.1687 266.758 92.912 268.151 92.912C268.738 92.912 269.258 92.9267 269.713 92.956C270.182 92.9853 270.674 93.044 271.187 93.132V94.364C270.776 94.2907 270.314 94.2393 269.801 94.21C269.302 94.166 268.774 94.144 268.217 94.144ZM74.4987 133L69.7247 119.206H73.5307L75.5767 126.026C75.7087 126.481 75.87 127.089 76.0607 127.852C76.2513 128.6 76.4347 129.348 76.6107 130.096C76.9333 128.761 77.1607 127.823 77.2927 127.28C77.4393 126.737 77.5493 126.327 77.6227 126.048L79.6467 119.206H83.3427L78.5907 133H74.4987ZM93.0106 129.788V132.406C92.6586 132.626 92.0646 132.817 91.2286 132.978C90.3926 133.139 89.5126 133.22 88.5886 133.22C86.8286 133.22 85.56 132.78 84.7826 131.9C84.0053 131.005 83.6166 129.561 83.6166 127.566C83.6166 125.615 84.0273 124.185 84.8486 123.276C85.67 122.367 86.968 121.912 88.7426 121.912C90.4733 121.912 91.6906 122.257 92.3946 122.946C93.1133 123.621 93.4726 124.823 93.4726 126.554C93.4726 127.023 93.4653 127.397 93.4506 127.676C93.436 127.955 93.4066 128.277 93.3626 128.644H86.9386C86.9533 129.245 87.1146 129.663 87.4226 129.898C87.7306 130.133 88.2953 130.25 89.1166 130.25C89.8206 130.25 90.5393 130.206 91.2726 130.118C92.006 130.015 92.5853 129.905 93.0106 129.788ZM88.7426 124.728C88.0386 124.728 87.562 124.853 87.3126 125.102C87.0633 125.337 86.9386 125.806 86.9386 126.51H90.4806V126.026C90.466 125.513 90.3413 125.168 90.1066 124.992C89.8866 124.816 89.432 124.728 88.7426 124.728ZM99.1712 133H95.8712V122.132H98.9512L99.0612 122.968H99.1052C99.6332 122.645 100.168 122.403 100.711 122.242C101.268 122.066 101.789 121.978 102.273 121.978H102.449V125.168C102.317 125.139 102.17 125.124 102.009 125.124C101.862 125.109 101.672 125.102 101.437 125.102C101.012 125.102 100.608 125.131 100.227 125.19C99.8458 125.234 99.4938 125.307 99.1712 125.41V133ZM105.275 124.882H103.999V122.132H105.385L105.803 119.602H108.575V122.132H111.655V124.882H108.575V129.106C108.575 129.517 108.678 129.795 108.883 129.942C109.103 130.074 109.529 130.14 110.159 130.14C110.379 130.14 110.651 130.125 110.973 130.096C111.296 130.052 111.567 130.008 111.787 129.964V132.78C111.553 132.883 111.186 132.978 110.687 133.066C110.203 133.169 109.771 133.22 109.389 133.22C107.923 133.22 106.867 132.912 106.221 132.296C105.591 131.665 105.275 130.646 105.275 129.238V124.882ZM117.218 120.944H113.742V118.37H117.218V120.944ZM117.13 133H113.83V122.132H117.13V133ZM127.984 129.678V132.406C127.632 132.626 127.06 132.817 126.268 132.978C125.476 133.139 124.662 133.22 123.826 133.22C122.242 133.22 121.127 132.802 120.482 131.966C119.851 131.115 119.536 129.649 119.536 127.566C119.536 125.483 119.946 124.024 120.768 123.188C121.589 122.337 123.026 121.912 125.08 121.912C125.578 121.912 126.026 121.927 126.422 121.956C126.818 121.971 127.243 122.007 127.698 122.066V124.992C126.979 124.933 126.458 124.904 126.136 124.904C125.813 124.889 125.461 124.882 125.08 124.882C124.068 124.882 123.437 125.029 123.188 125.322C122.953 125.601 122.836 126.349 122.836 127.566C122.836 128.666 122.931 129.37 123.122 129.678C123.327 129.986 123.789 130.14 124.508 130.14C125.094 130.14 125.703 130.096 126.334 130.008C126.979 129.92 127.529 129.81 127.984 129.678ZM132.861 133.22C131.747 133.22 130.925 132.941 130.397 132.384C129.884 131.827 129.627 130.947 129.627 129.744C129.627 128.512 129.935 127.647 130.551 127.148C131.182 126.649 132.26 126.4 133.785 126.4C134.137 126.4 134.497 126.422 134.863 126.466C135.245 126.495 135.575 126.539 135.853 126.598V125.806C135.853 125.454 135.699 125.197 135.391 125.036C135.098 124.86 134.643 124.772 134.027 124.772C133.323 124.772 132.693 124.794 132.135 124.838C131.593 124.867 131.094 124.926 130.639 125.014V122.308C131.182 122.176 131.813 122.081 132.531 122.022C133.25 121.949 134.086 121.912 135.039 121.912C136.389 121.912 137.408 122.213 138.097 122.814C138.801 123.415 139.153 124.303 139.153 125.476V133H136.073L135.963 132.076H135.897C135.443 132.428 134.944 132.707 134.401 132.912C133.859 133.117 133.345 133.22 132.861 133.22ZM134.225 128.578C133.639 128.578 133.243 128.644 133.037 128.776C132.832 128.893 132.729 129.15 132.729 129.546C132.729 129.913 132.81 130.169 132.971 130.316C133.147 130.448 133.448 130.514 133.873 130.514C134.196 130.514 134.533 130.47 134.885 130.382C135.237 130.294 135.56 130.184 135.853 130.052V128.71C135.677 128.666 135.457 128.637 135.193 128.622C134.929 128.593 134.607 128.578 134.225 128.578ZM145.186 118.37V133H141.886V118.37H145.186ZM158.916 131.834C159.517 131.834 160.14 131.761 160.786 131.614C161.446 131.467 162.076 131.269 162.678 131.02V132.296C161.871 132.619 161.16 132.846 160.544 132.978C159.928 133.095 159.29 133.154 158.63 133.154C156.547 133.154 155.073 132.611 154.208 131.526C153.342 130.426 152.91 128.607 152.91 126.07C152.91 123.621 153.401 121.831 154.384 120.702C155.381 119.558 156.965 118.986 159.136 118.986C159.81 118.986 160.412 119.001 160.94 119.03C161.468 119.059 161.944 119.111 162.37 119.184V120.46C161.871 120.401 161.365 120.357 160.852 120.328C160.338 120.299 159.766 120.284 159.136 120.284C157.39 120.284 156.158 120.731 155.44 121.626C154.721 122.506 154.362 123.987 154.362 126.07C154.362 128.211 154.684 129.707 155.33 130.558C155.99 131.409 157.185 131.834 158.916 131.834ZM167.219 119.888H165.723V118.37H167.219V119.888ZM167.153 133H165.789V122.132H167.153V133ZM172.567 133H171.203V122.132H172.435L172.523 123.1H172.589C173.19 122.763 173.791 122.506 174.393 122.33C174.994 122.154 175.588 122.066 176.175 122.066C176.424 122.066 176.593 122.066 176.681 122.066C176.769 122.066 176.842 122.073 176.901 122.088V123.408C176.798 123.379 176.666 123.364 176.505 123.364C176.358 123.349 176.131 123.342 175.823 123.342C175.265 123.342 174.708 123.415 174.151 123.562C173.593 123.709 173.065 123.921 172.567 124.2V133ZM186.911 131.174V132.34C186.529 132.575 185.987 132.773 185.283 132.934C184.579 133.081 183.838 133.154 183.061 133.154C181.521 133.154 180.443 132.743 179.827 131.922C179.211 131.086 178.903 129.627 178.903 127.544C178.903 125.52 179.299 124.075 180.091 123.21C180.897 122.345 182.254 121.912 184.161 121.912C184.586 121.912 184.967 121.927 185.305 121.956C185.642 121.971 186.082 122.015 186.625 122.088V123.32C185.906 123.232 185.4 123.181 185.107 123.166C184.828 123.151 184.513 123.144 184.161 123.144C182.679 123.144 181.66 123.467 181.103 124.112C180.545 124.757 180.267 125.901 180.267 127.544C180.267 129.216 180.487 130.36 180.927 130.976C181.367 131.592 182.181 131.9 183.369 131.9C183.999 131.9 184.637 131.834 185.283 131.702C185.943 131.555 186.485 131.379 186.911 131.174ZM193.562 133.154C192.374 133.154 191.479 132.853 190.878 132.252C190.277 131.651 189.976 130.756 189.976 129.568V122.132H191.34V129.414C191.34 130.265 191.553 130.888 191.978 131.284C192.403 131.68 193.078 131.878 194.002 131.878C194.545 131.878 195.095 131.805 195.652 131.658C196.209 131.497 196.789 131.262 197.39 130.954V122.132H198.754V133H197.522L197.456 132.01H197.434C196.686 132.421 196.004 132.714 195.388 132.89C194.787 133.066 194.178 133.154 193.562 133.154ZM204.168 118.37V133H202.804V118.37H204.168ZM210.659 133.154C209.544 133.154 208.723 132.89 208.195 132.362C207.681 131.834 207.425 130.998 207.425 129.854C207.425 128.71 207.74 127.896 208.371 127.412C209.001 126.928 210.072 126.686 211.583 126.686C212.125 126.686 212.653 126.708 213.167 126.752C213.68 126.796 214.179 126.862 214.663 126.95V125.806C214.663 124.838 214.443 124.156 214.003 123.76C213.563 123.349 212.844 123.144 211.847 123.144C211.172 123.144 210.578 123.173 210.065 123.232C209.566 123.291 209.053 123.386 208.525 123.518V122.308C209.141 122.161 209.727 122.059 210.285 122C210.857 121.941 211.517 121.912 212.265 121.912C213.555 121.912 214.501 122.22 215.103 122.836C215.719 123.437 216.027 124.391 216.027 125.696V133H214.795L214.729 131.922H214.685C214.23 132.289 213.636 132.589 212.903 132.824C212.169 133.044 211.421 133.154 210.659 133.154ZM211.737 127.808C210.622 127.808 209.837 127.955 209.383 128.248C208.943 128.541 208.723 129.047 208.723 129.766C208.723 130.529 208.906 131.079 209.273 131.416C209.639 131.753 210.233 131.922 211.055 131.922C211.715 131.922 212.375 131.827 213.035 131.636C213.709 131.431 214.252 131.181 214.663 130.888V128.072C214.179 127.984 213.695 127.918 213.211 127.874C212.741 127.83 212.25 127.808 211.737 127.808ZM221.353 133H219.989V122.132H221.221L221.309 123.1H221.375C221.977 122.763 222.578 122.506 223.179 122.33C223.781 122.154 224.375 122.066 224.961 122.066C225.211 122.066 225.379 122.066 225.467 122.066C225.555 122.066 225.629 122.073 225.687 122.088V123.408C225.585 123.379 225.453 123.364 225.291 123.364C225.145 123.349 224.917 123.342 224.609 123.342C224.052 123.342 223.495 123.415 222.937 123.562C222.38 123.709 221.852 123.921 221.353 124.2V133ZM234.328 133H232.964V122.132H234.196L234.284 123.034H234.328C235.032 122.623 235.648 122.337 236.176 122.176C236.719 122 237.261 121.912 237.804 121.912C238.42 121.912 238.948 122.015 239.388 122.22C239.843 122.411 240.202 122.697 240.466 123.078H240.51C241.17 122.682 241.815 122.389 242.446 122.198C243.091 122.007 243.751 121.912 244.426 121.912C245.467 121.912 246.252 122.183 246.78 122.726C247.323 123.254 247.594 124.039 247.594 125.08V133H246.23V125.234C246.23 124.515 246.039 123.987 245.658 123.65C245.277 123.313 244.683 123.144 243.876 123.144C243.407 123.144 242.915 123.217 242.402 123.364C241.903 123.511 241.39 123.731 240.862 124.024C240.906 124.2 240.935 124.376 240.95 124.552C240.965 124.728 240.972 124.904 240.972 125.08V133H239.608V125.234C239.608 124.515 239.417 123.987 239.036 123.65C238.655 123.313 238.053 123.144 237.232 123.144C236.821 123.144 236.389 123.217 235.934 123.364C235.479 123.511 234.944 123.76 234.328 124.112V133ZM260.897 127.544C260.897 129.597 260.531 131.049 259.797 131.9C259.064 132.736 257.795 133.154 255.991 133.154C254.099 133.154 252.801 132.758 252.097 131.966C251.393 131.159 251.041 129.685 251.041 127.544C251.041 125.476 251.408 124.024 252.141 123.188C252.889 122.337 254.173 121.912 255.991 121.912C257.869 121.912 259.152 122.315 259.841 123.122C260.545 123.914 260.897 125.388 260.897 127.544ZM252.405 127.522C252.405 129.282 252.64 130.455 253.109 131.042C253.593 131.614 254.554 131.9 255.991 131.9C257.37 131.9 258.301 131.592 258.785 130.976C259.284 130.36 259.533 129.209 259.533 127.522C259.533 125.762 259.299 124.596 258.829 124.024C258.36 123.437 257.414 123.144 255.991 123.144C254.598 123.144 253.652 123.452 253.153 124.068C252.655 124.669 252.405 125.821 252.405 127.522ZM270.534 131.68V132.846C270.27 132.934 269.947 133.007 269.566 133.066C269.199 133.125 268.84 133.154 268.488 133.154C267.197 133.154 266.28 132.868 265.738 132.296C265.195 131.709 264.924 130.697 264.924 129.26V123.32H263.208V122.132H264.946L265.188 119.448H266.288V122.132H270.402V123.32H266.288V129.216C266.288 130.257 266.471 130.969 266.838 131.35C267.204 131.717 267.842 131.9 268.752 131.9C269.045 131.9 269.36 131.878 269.698 131.834C270.05 131.79 270.328 131.739 270.534 131.68ZM274.761 119.888H273.265V118.37H274.761V119.888ZM274.695 133H273.331V122.132H274.695V133ZM288.094 127.544C288.094 129.597 287.727 131.049 286.994 131.9C286.261 132.736 284.992 133.154 283.188 133.154C281.296 133.154 279.998 132.758 279.294 131.966C278.59 131.159 278.238 129.685 278.238 127.544C278.238 125.476 278.605 124.024 279.338 123.188C280.086 122.337 281.369 121.912 283.188 121.912C285.065 121.912 286.349 122.315 287.038 123.122C287.742 123.914 288.094 125.388 288.094 127.544ZM279.602 127.522C279.602 129.282 279.837 130.455 280.306 131.042C280.79 131.614 281.751 131.9 283.188 131.9C284.567 131.9 285.498 131.592 285.982 130.976C286.481 130.36 286.73 129.209 286.73 127.522C286.73 125.762 286.495 124.596 286.026 124.024C285.557 123.437 284.611 123.144 283.188 123.144C281.795 123.144 280.849 123.452 280.35 124.068C279.851 124.669 279.602 125.821 279.602 127.522ZM293.019 133H291.655V122.132H292.821L292.909 123.188H292.975C293.621 122.748 294.273 122.425 294.933 122.22C295.593 122.015 296.312 121.912 297.089 121.912C298.292 121.912 299.201 122.213 299.817 122.814C300.433 123.415 300.741 124.303 300.741 125.476V133H299.377V125.63C299.377 124.794 299.15 124.171 298.695 123.76C298.241 123.349 297.544 123.144 296.605 123.144C296.033 123.144 295.447 123.239 294.845 123.43C294.244 123.606 293.635 123.877 293.019 124.244V133Z" fill="#FFBCBC"/>
<defs>
<filter id="filter0_di_470_5" x="0" y="0" width="382" height="270.843" filterUnits="userSpaceOnUse" color-interpolation-filters="sRGB">
<feFlood flood-opacity="0" result="BackgroundImageFix"/>
<feColorMatrix in="SourceAlpha" type="matrix" values="0 0 0 0 0 0 0 0 0 0 0 0 0 0 0 0 0 0 127 0" result="hardAlpha"/>
<feOffset dx="5" dy="6"/>
<feGaussianBlur stdDeviation="28"/>
<feComposite in2="hardAlpha" operator="out"/>
<feColorMatrix type="matrix" values="0 0 0 0 0.988235 0 0 0 0 0.396078 0 0 0 0 0.396078 0 0 0 0.8 0"/>
<feBlend mode="normal" in2="BackgroundImageFix" result="effect1_dropShadow_470_5"/>
<feBlend mode="normal" in="SourceGraphic" in2="effect1_dropShadow_470_5" result="shape"/>
<feColorMatrix in="SourceAlpha" type="matrix" values="0 0 0 0 0 0 0 0 0 0 0 0 0 0 0 0 0 0 127 0" result="hardAlpha"/>
<feOffset dx="-4" dy="-2"/>
<feGaussianBlur stdDeviation="7"/>
<feComposite in2="hardAlpha" operator="arithmetic" k2="-1" k3="1"/>
<feColorMatrix type="matrix" values="0 0 0 0 0.811765 0 0 0 0 0 0 0 0 0 0 0 0 0 1 0"/>
<feBlend mode="normal" in2="shape" result="effect2_innerShadow_470_5"/>
</filter>
</defs>
</svg>
